<svg width="195" height="76" viewBox="0 0 195 76" fill="none" xmlns="http://www.w3.org/2000/svg">
<g opacity="0.2" filter="url(#filter0_d_249_243)">
<path d="M4 35.2696L44.0853 4H181V62H44.0853L4 35.2696Z" fill="white"/>
<path d="M4 35.2696L44.0853 4H181V62H44.0853L4 35.2696Z" stroke="black"/>
</g>
<path d="M52.4538 39V22.2727H59.0533C60.3165 22.2727 61.3947 22.4987 62.2876 22.9506C63.1861 23.3971 63.8694 24.0315 64.3377 24.8537C64.8114 25.6705 65.0483 26.6315 65.0483 27.7369C65.0483 28.8477 64.8087 29.8033 64.3295 30.6037C63.8504 31.3987 63.1561 32.0085 62.2468 32.4332C61.3429 32.858 60.2485 33.0703 58.9634 33.0703H54.5447V30.228H58.3917C59.0669 30.228 59.6277 30.1354 60.0742 29.9503C60.5207 29.7652 60.8529 29.4875 61.0707 29.1172C61.2939 28.7469 61.4055 28.2868 61.4055 27.7369C61.4055 27.1815 61.2939 26.7132 61.0707 26.332C60.8529 25.9509 60.518 25.6623 60.0661 25.4663C59.6196 25.2648 59.056 25.1641 58.3754 25.1641H55.9904V39H52.4538ZM61.4872 31.3878L65.6445 39H61.7404L57.6729 31.3878H61.4872ZM69.8476 39V22.2727H81.1189V25.1886H73.3842V29.1744H80.539V32.0902H73.3842V36.0842H81.1516V39H69.8476ZM85.5935 25.1886V22.2727H99.3314V25.1886H94.2104V39H90.7146V25.1886H85.5935ZM118.502 30.6364C118.502 32.4605 118.156 34.0123 117.464 35.2919C116.778 36.5715 115.842 37.5489 114.655 38.2241C113.473 38.8938 112.145 39.2287 110.669 39.2287C109.182 39.2287 107.848 38.8911 106.667 38.2159C105.485 37.5407 104.551 36.5633 103.865 35.2837C103.179 34.0041 102.836 32.455 102.836 30.6364C102.836 28.8123 103.179 27.2604 103.865 25.9808C104.551 24.7012 105.485 23.7266 106.667 23.0568C107.848 22.3816 109.182 22.044 110.669 22.044C112.145 22.044 113.473 22.3816 114.655 23.0568C115.842 23.7266 116.778 24.7012 117.464 25.9808C118.156 27.2604 118.502 28.8123 118.502 30.6364ZM114.916 30.6364C114.916 29.4548 114.739 28.4583 114.385 27.647C114.037 26.8357 113.544 26.2204 112.907 25.8011C112.27 25.3819 111.524 25.1722 110.669 25.1722C109.814 25.1722 109.068 25.3819 108.431 25.8011C107.794 26.2204 107.298 26.8357 106.944 27.647C106.596 28.4583 106.422 29.4548 106.422 30.6364C106.422 31.8179 106.596 32.8144 106.944 33.6257C107.298 34.437 107.794 35.0523 108.431 35.4716C109.068 35.8909 109.814 36.1005 110.669 36.1005C111.524 36.1005 112.27 35.8909 112.907 35.4716C113.544 35.0523 114.037 34.437 114.385 33.6257C114.739 32.8144 114.916 31.8179 114.916 30.6364ZM133.753 22.2727H137.29V33.1357C137.29 34.3554 136.999 35.4226 136.416 36.3374C135.839 37.2521 135.03 37.9654 133.99 38.4773C132.95 38.9837 131.739 39.2369 130.356 39.2369C128.967 39.2369 127.753 38.9837 126.713 38.4773C125.673 37.9654 124.864 37.2521 124.287 36.3374C123.71 35.4226 123.421 34.3554 123.421 33.1357V22.2727H126.958V32.8335C126.958 33.4705 127.097 34.0368 127.375 34.5323C127.658 35.0278 128.055 35.4171 128.567 35.7003C129.079 35.9834 129.675 36.125 130.356 36.125C131.042 36.125 131.638 35.9834 132.144 35.7003C132.656 35.4171 133.051 35.0278 133.329 34.5323C133.612 34.0368 133.753 33.4705 133.753 32.8335V22.2727ZM142.5 39V22.2727H149.099C150.362 22.2727 151.441 22.4987 152.334 22.9506C153.232 23.3971 153.915 24.0315 154.384 24.8537C154.857 25.6705 155.094 26.6315 155.094 27.7369C155.094 28.8477 154.855 29.8033 154.375 30.6037C153.896 31.3987 153.202 32.0085 152.293 32.4332C151.389 32.858 150.294 33.0703 149.009 33.0703H144.591V30.228H148.438C149.113 30.228 149.674 30.1354 150.12 29.9503C150.567 29.7652 150.899 29.4875 151.117 29.1172C151.34 28.7469 151.451 28.2868 151.451 27.7369C151.451 27.1815 151.34 26.7132 151.117 26.332C150.899 25.9509 150.564 25.6623 150.112 25.4663C149.665 25.2648 149.102 25.1641 148.421 25.1641H146.036V39H142.5ZM151.533 31.3878L155.69 39H151.786L147.719 31.3878H151.533Z" fill="black"/>
<defs>
<filter id="filter0_d_249_243" x="0.146484" y="0.5" width="194.354" height="75" filterUnits="userSpaceOnUse" color-interpolation-filters="sRGB">
<feFlood flood-opacity="0" result="BackgroundImageFix"/>
<feColorMatrix in="SourceAlpha" type="matrix" values="0 0 0 0 0 0 0 0 0 0 0 0 0 0 0 0 0 0 127 0" result="hardAlpha"/>
<feOffset dx="5" dy="5"/>
<feGaussianBlur stdDeviation="4"/>
<feComposite in2="hardAlpha" operator="out"/>
<feColorMatrix type="matrix" values="0 0 0 0 0 0 0 0 0 0 0 0 0 0 0 0 0 0 0.53 0"/>
<feBlend mode="normal" in2="BackgroundImageFix" result="effect1_dropShadow_249_243"/>
<feBlend mode="normal" in="SourceGraphic" in2="effect1_dropShadow_249_243" result="shape"/>
</filter>
</defs>
</svg>
